<svg xmlns="http://www.w3.org/2000/svg" viewBox="0 0 1440 320">
    <path fill="#e7008a" fill-opacity="0.1"
          d="M0,160L26.7,144C53.3,128,107,96,160,106.7C213.3,117,267,171,320,208C373.3,245,427,267,480,250.7C533.3,235,587,181,640,170.7C693.3,160,747,192,800,218.7C853.3,245,907,267,960,277.3C1013.3,288,1067,288,1120,266.7C1173.3,245,1227,203,1280,197.3C1333.3,192,1387,224,1413,240L1440,256L1440,320L1413.3,320C1386.7,320,1333,320,1280,320C1226.7,320,1173,320,1120,320C1066.7,320,1013,320,960,320C906.7,320,853,320,800,320C746.7,320,693,320,640,320C586.7,320,533,320,480,320C426.7,320,373,320,320,320C266.7,320,213,320,160,320C106.7,320,53,320,27,320L0,320Z"></path>
</svg>